<svg xmlns="http://www.w3.org/2000/svg" version="1.1" xmlns:xlink="http://www.w3.org/1999/xlink" xmlns:svgjs="http://svgjs.com/svgjs" width="2000" height="560" preserveAspectRatio="none" viewBox="0 0 2000 560"><g mask="url(&quot;#SvgjsMask1189&quot;)" fill="none"><rect width="2000" height="560" x="0" y="0" fill="rgba(255, 255, 255, 1)"></rect><path d="M0,861.663C159.544,856.388,223.455,642.636,361.668,562.766C510.512,476.753,742.102,526.35,832.877,380.362C921.876,237.231,804.98,54.539,781.458,-112.357C757.856,-279.816,815.578,-483.728,694.457,-601.75C572.373,-720.71,364.562,-636.888,199.497,-679.425C42.339,-719.925,-89.174,-877.972,-248.003,-844.622C-407.114,-811.213,-487.261,-637.325,-592.242,-513.181C-695.882,-390.622,-830.701,-281.53,-857.935,-123.352C-885.407,36.206,-829.384,203.231,-738.68,337.344C-654.951,461.144,-499.246,500.693,-377.371,587.201C-247.911,679.092,-158.67,866.909,0,861.663" fill="#a6a6a6"></path><path d="M2000 1290.329C2134.213 1298.762 2241.352 1181.338 2341.971 1092.118 2430.608 1013.523 2504.503 920.085 2543.645 808.274 2580.572 702.79 2577.297 589.784 2556.251 480.023 2535.948 374.13599999999997 2482.708 282.721 2425.366 191.418 2358.227 84.51600000000002 2312.621-57.06600000000003 2193.213-98.02200000000005 2073.729-139.00400000000002 1950.518-55.84100000000001 1832.017-12.097999999999956 1721.471 28.70799999999997 1609.863 66.62400000000002 1525.186 148.57100000000003 1435.4389999999999 235.42399999999998 1351.4740000000002 340.697 1339.054 464.97 1326.79 587.682 1396.743 700.663 1459.393 806.887 1516.77 904.172 1600.384 975.5219999999999 1684.575 1050.811 1785.019 1140.634 1865.517 1281.879 2000 1290.329" fill="#ffffff"></path></g><defs><mask id="SvgjsMask1189"><rect width="2000" height="560" fill="#ffffff"></rect></mask></defs></svg>